<svg width="600" height="250" xmlns="http://www.w3.org/2000/svg" xmlns:xlink="http://www.w3.org/1999/xlink" version="1.1" id="Outlined" x="0px" y="0px" data-tn-guide-id="Logo-Image" viewBox="0 0 555.2 116.6">
  <g fill="#FFFFFF">
    <path d="m120.5 64.3-15.8-47.1c-1.3-3.8-4.5-6.6-8.4-7.3l-49.5-9.7c-3.8-.7-7.8.6-10.4 3.5l-33.6 37.7c-2.6 3-3.5 7.1-2.2 10.9l15.9 47.1c1.3 3.8 4.5 6.6 8.4 7.3l49.5 9.7c.7.1 1.4.2 2.1.2 3.2 0 6.2-1.3 8.3-3.7l33.6-37.6c2.5-3.1 3.3-7.2 2.1-11m-6.5 7.2-33.5 37.6c-1.3 1.4-3.2 2.1-5.1 1.7l-49.5-9.7c-1.9-.4-3.5-1.7-4.1-3.6l-15.9-47c-.6-1.9-.2-3.9 1.1-5.4l33.6-37.6c1-1.2 2.5-1.8 4.1-1.8.3 0 .7 0 1 .1l49.5 9.6c1.9.4 3.5 1.8 4.1 3.6l15.9 47.1c.6 1.9.2 3.9-1.2 5.4"></path>
    <path d="m167.1 47.4c-.2.2-.6.4-.9.4h-10.8c-.3 0-.5.1-.5.4v.1 25.5c0 2.7.6 4.6 1.8 5.8s3 1.8 5.6 1.8h3.2c.7 0 1.3.6 1.3 1.2v7.9c0 .7-.5 1.3-1.2 1.4l-5.5.1c-5.6 0-9.7-1-12.5-2.9s-4.2-5.5-4.2-10.8v-30c0-.3-.1-.5-.4-.5h-.1-6c-.3 0-.7-.1-.9-.4-.2-.2-.4-.6-.4-.9v-7.4c0-.7.6-1.3 1.2-1.3h6c.3 0 .5-.1.5-.4v-.1-12.4c0-.3.1-.7.4-.9.2-.2.6-.4.9-.4h9.2c.7 0 1.3.6 1.3 1.2v12.4c0 .3.1.5.4.5h.1 10.8c.7 0 1.3.6 1.3 1.2v7.4c-.2.6-.4.9-.6 1.1z"></path>
    <path d="m219.7 64.7-.1 3.3c.1.6-.3 1.2-.9 1.3-.1 0-.2 0-.3 0h-33.1c-.3 0-.5.1-.5.4v.1c.1 1.6.4 3.2 1 4.8 1.7 5.1 5.8 7.7 12.4 7.7 4.6.1 8.9-2.1 11.4-5.9.2-.4.6-.6 1.1-.6.3 0 .5.1.7.3l6.6 5.4c.5.3.7 1 .4 1.5 0 .1-.1.1-.1.1-2.2 3.1-5.2 5.6-8.7 7.2-3.8 1.7-7.9 2.6-12.1 2.5-4.9.1-9.8-1.1-14-3.7-3.9-2.5-6.8-6.1-8.5-10.4-1.6-3.8-2.4-9.1-2.4-15.9-.1-3.4.3-6.8 1.3-10 1.2-4.7 4.1-8.8 8-11.7 4.1-2.9 9.1-4.4 14.1-4.3 13.9 0 21.8 7.3 23.5 21.8.1 2.2.2 4.1.2 6.1zm-30.5-15.1c-1.8 1.4-3.1 3.3-3.6 5.4-.5 1.5-.8 3.1-.9 4.7-.1.4 0 .5.4.5h21.5c.3 0 .5-.1.5-.4v-.1c-.1-1.4-.3-2.7-.6-4-.5-2.4-1.8-4.5-3.7-6-2-1.5-4.5-2.2-7-2.1-2.4-.1-4.7.6-6.6 2z"></path>
    <path d="m265.8 42.1c3.4 3.4 5.1 8 5.1 13.9v34.7c0 .3-.1.7-.4.9-.2.2-.6.4-.9.4h-9.7c-.7 0-1.3-.6-1.3-1.2v-32.3c.1-2.9-.9-5.7-2.8-7.9-1.9-2-4.6-3.1-7.3-3-2.8-.1-5.4 1-7.4 3-1.9 2.1-2.9 5-2.8 7.8v32.3c0 .3-.1.7-.4.9-.2.2-.6.4-.9.4h-9.8c-.3 0-.7-.1-.9-.4-.2-.2-.4-.6-.4-.9v-51.6c0-.3.1-.7.4-.9.2-.2.6-.4.9-.4h9.8c.3 0 .7.1.9.4.2.2.4.6.4.9v3.4c0 .2.1.3.2.4s.2 0 .3-.2c2.9-3.8 7.3-5.7 13.1-5.7 5.9 0 10.5 1.7 13.9 5.1z"></path>
    <path d="m311.4 39.3c3.2 1.4 5.9 3.6 7.8 6.4 1.8 2.7 2.8 6 2.8 9.3v35.7c0 .3-.1.7-.4.9-.2.2-.6.4-.9.4h-9.7c-.7 0-1.3-.6-1.3-1.2v-3.4c0-.2-.1-.3-.2-.4-.2 0-.3 0-.4.2-3.5 3.8-8.5 5.7-15 5.7-5.3 0-9.7-1.3-13.1-4s-5.1-6.7-5.1-12c0-5.5 1.9-9.8 5.8-12.9 3.8-3.1 9.2-4.6 16.2-4.6h11.3c.3 0 .5-.1.5-.4v-.1-2.6c.1-2.4-.7-4.7-2.4-6.4-1.6-1.5-4.1-2.3-7.3-2.3-2.3-.1-4.5.4-6.5 1.4-1.6.8-2.7 2.3-3.1 4-.2.8-.7 1.2-1.5 1.1l-10.3-1.3c-.3-.1-.6-.2-.9-.4-.2-.1-.3-.4-.3-.7.6-4.3 2.9-7.8 6.9-10.6s9.2-4.1 15.3-4.1c4-.1 8.1.7 11.8 2.3zm-5.4 41c2.3-1.6 3.7-4.2 3.7-7v-5c0-.3-.1-.5-.4-.5h-.1-8.9c-3.8 0-6.7.7-8.9 2.1-2.1 1.3-3.3 3.6-3.2 6-.1 2.1.8 4 2.5 5.2 1.9 1.3 4.1 2 6.4 1.9 3.1.1 6.3-.8 8.9-2.7z"></path>
    <path d="m376.9 64.7c.1 4.5-.6 9-2 13.2-1.3 4.3-3.9 8.1-7.5 10.9-3.7 2.7-8.2 4.1-12.7 3.9-4.7.1-9.2-2-12.2-5.6-.1-.2-.3-.3-.4-.2-.2.1-.2.3-.2.4v3.3c0 .7-.6 1.3-1.2 1.3h-9.9c-.3 0-.7-.1-.9-.4-.2-.2-.4-.6-.4-.9v-71.5c0-.7.5-1.3 1.2-1.3h9.7c.3 0 .7.1.9.4.2.2.4.6.4.9v23c0 .2.1.3.2.4.2.1.3 0 .4-.1 3-3.6 7.4-5.6 12.1-5.4 5.2 0 9.6 1.3 13 3.9 3.6 2.8 6.2 6.6 7.6 10.9 1.3 4.2 1.9 8.6 1.9 12.9zm-12.6.3c0-5.5-1.1-9.8-3.2-12.9-1.8-2.9-5-4.6-8.5-4.4-3.3-.1-6.4 1.7-7.9 4.7-1.8 2.9-2.6 7.1-2.6 12.6s.8 9.5 2.4 12.3c1.5 3.2 4.8 5.2 8.3 5.1 1.8 0 3.7-.4 5.3-1.3s2.8-2.2 3.7-3.8c1.7-3.1 2.5-7.2 2.5-12.3z"></path>
    <path d="m384.3 91.6c-.2-.2-.4-.6-.4-.9v-71.6c0-.3.1-.7.4-.9.2-.2.6-.4.9-.4h9.7c.3 0 .7.1.9.4.2.2.4.6.4.9v71.6c0 .7-.6 1.3-1.2 1.3h-9.7c-.5 0-.8-.2-1-.4z"></path>
    <path d="m450.5 64.7-.1 3.3c.1.6-.3 1.2-.9 1.3-.1 0-.2 0-.3 0h-33.2c-.3 0-.5.1-.5.4v.1c.1 1.6.4 3.2 1 4.8 1.7 5.1 5.8 7.7 12.4 7.7 4.6.1 8.9-2.1 11.4-5.9.2-.4.6-.6 1.1-.6.3 0 .5.1.7.3l6.6 5.4c.5.3.7 1 .4 1.5 0 .1-.1.1-.1.2-2.2 3.1-5.2 5.6-8.7 7.2-3.8 1.7-7.9 2.6-12.1 2.5-4.9.2-9.8-1.1-14-3.7-3.8-2.5-6.8-6.1-8.4-10.4-1.6-3.8-2.4-9.1-2.4-15.9-.1-3.4.3-6.8 1.3-10 1.2-4.7 4.1-8.8 8-11.7 4.1-2.9 9.1-4.4 14.1-4.3 13.9 0 21.7 7.3 23.5 21.8.1 2.1.2 4 .2 6zm-30.5-15.1c-1.8 1.4-3.1 3.3-3.6 5.4-.5 1.5-.8 3.1-.9 4.7-.1.4 0 .5.4.5h21.5c.3 0 .5-.1.5-.4v-.1c-.1-1.4-.3-2.7-.6-4-.5-2.4-1.9-4.5-3.8-5.9-2-1.5-4.5-2.3-7-2.2-2.3-.1-4.6.6-6.5 2z"></path>
    <path d="m459.1 90c-3-2.9-3.1-7.7-.2-10.6 1.5-1.5 3.5-2.3 5.6-2.3 2-.1 3.9.7 5.3 2.1s2.1 3.4 2.1 5.4c.1 2-.7 4-2.1 5.4s-3.3 2.2-5.3 2.1c-2.1.1-4-.6-5.4-2.1z"></path>
    <path d="m482.7 28.3c-1.4-1.4-2.2-3.4-2.1-5.4-.3-4.1 2.8-7.7 7-8 4.1-.3 7.7 2.8 8 7v1.1c-.1 4.2-3.5 7.6-7.7 7.5-2-.1-3.8-.8-5.2-2.2zm-.6 63.3c-.2-.2-.4-.6-.4-.9v-51.7c0-.7.6-1.3 1.2-1.3h9.8c.7 0 1.3.6 1.3 1.2v51.7c0 .3-.1.7-.4.9-.2.2-.6.4-.9.4h-9.8c-.2.1-.6-.1-.8-.3z"></path>
    <path d="m512 88.6c-4-2.9-7-7-8.4-11.8-1.2-3.9-1.8-8-1.7-12.1-.1-4.1.5-8.2 1.7-12.1 1.4-4.7 4.4-8.8 8.5-11.5 4.3-2.8 9.4-4.3 14.5-4.1 5-.1 9.8 1.3 13.9 4.1 3.9 2.8 6.8 6.8 8.3 11.5 1.3 3.9 2 7.9 1.9 12 .1 4.1-.5 8.2-1.8 12.1-1.4 4.7-4.4 8.9-8.4 11.8-4.1 2.9-9.1 4.4-14.1 4.3-5.2.2-10.2-1.3-14.4-4.2zm21-8.6c2-1.6 3.4-3.8 4.1-6.2.8-2.9 1.1-5.9 1.1-8.9.1-3-.3-6-1.1-8.9-.6-2.5-2-4.6-4-6.2-2-1.5-4.5-2.2-7-2.2-2.4 0-4.8.7-6.8 2.2-2 1.6-3.4 3.8-4.1 6.2-.8 2.9-1.1 5.9-1.1 8.9-.1 3 .3 6 1.1 8.9.6 2.5 2.1 4.7 4.1 6.2s4.5 2.3 7 2.2c2.4.1 4.8-.7 6.7-2.2z"></path>
    <path d="m553.3 31.8c.6.3 1 .8 1.4 1.4.3.6.5 1.2.5 1.9s-.2 1.3-.5 1.9-.8 1-1.4 1.4c-.6.3-1.2.5-1.9.5s-1.3-.2-1.9-.5c-1.8-1.1-2.4-3.4-1.4-5.2.3-.6.8-1 1.4-1.4 1.1-.7 2.6-.7 3.8 0zm-.4 5.9c.5-.3.8-.6 1.1-1.1s.4-1 .4-1.6c0-1.1-.6-2.1-1.5-2.6-1-.5-2.2-.5-3.1 0s-1.5 1.5-1.5 2.6c0 .5.1 1.1.4 1.6.9 1.5 2.8 1.9 4.2 1.1zm-.4-2.8c-.1.1-.2.3-.4.3l-.1.1.5 1.2v.1c0 .1-.1.2-.2.2h-.2c-.1 0-.2-.1-.2-.2l-.5-1.2s0-.1-.1-.1h-.3s-.1 0-.1.1v1.2c0 .1-.1.2-.1.2h-.2c-.1 0-.2-.1-.2-.2v-3.1c0-.1.1-.2.2-.2h1c.6 0 1 .4 1 1 0 .2-.1.4-.1.6zm-1.5-1v.9s0 .1.1.1h.5c.1 0 .3-.1.4-.2s.1-.2.1-.4c0-.1 0-.3-.1-.4s-.2-.1-.4-.1l-.6.1c0-.1 0-.1 0 0-.1 0-.1 0 0 0z"></path>
  </g>
</svg>
